# xmcd
#
# Track frame offsets:
#	150
#	17795
#	32636
#	49298
#	64003
#	79186
#	96724
#	113235
#	131809
#	146692
#	162114
#	180856
#	197835
#	216485
#	233213
#
# Disc length: 3306 seconds
#
# Revision: 1
# Processed by: cddbd v1.5.2PL0 Copyright (c) Steve Scherf et al.
# Submitted via: audiograbber 1.83.01
#
DISCID=db0ce80f
DTITLE=Various Artist - CB60048
DYEAR=1900
DGENRE=Country
TTITLE0=Vince Gill - Don't Let Your Love Start Slippin' Away
TTITLE1=Martina McBride - Cheap Whiskey
TTITLE2=Brenda Lee - Nobody Wins
TTITLE3=Diamond Rio - Norma Jean Riley
TTITLE4=Judds - I Know Where I Am Going
TTITLE5=Linda Ronstadt - Desperado
TTITLE6=Alabama - If You're Gonna Play In Texas
TTITLE7=Michelle Wright - Take It Like A Man
TTITLE8=Don Gibson - Oh Lonesome Me
TTITLE9=Marty Stuart - Tempted
TTITLE10=Trisha Yearwood - Song Remembers When
TTITLE11=John Anderson - I Wish I Could Have Been There
TTITLE12=Dwight Yoakam - A Thousand Miles From Nowhere
TTITLE13=Carlene Carter - I Fell In Love
TTITLE14=Hal Ketchun - Hearts Ae Gonna Roll
EXTD=
EXTT0=
EXTT1=
EXTT2=
EXTT3=
EXTT4=
EXTT5=
EXTT6=
EXTT7=
EXTT8=
EXTT9=
EXTT10=
EXTT11=
EXTT12=
EXTT13=
EXTT14=
PLAYORDER=
